<svg xmlns="http://www.w3.org/2000/svg" xmlns:xlink="http://www.w3.org/1999/xlink" style="margin:auto;background:#111111;display:block;z-index:1;position:relative" width="1879" height="1088" preserveAspectRatio="xMidYMid" viewBox="0 0 1879 1088">
<g transform="translate(939.5,544) scale(1,1) translate(-939.5,-544)"><defs>
  <path id="path-yg5wqx0pjs-1" d="M-35 -35L35 -35L35 35L-35 35Z" fill="none" stroke="inherit" stroke-width="5.272727272727273" transform="scale(0.55)"></path>
  <path id="path-yg5wqx0pjs-2" d="M0 -37A37 37 0 0 1 0 37A37 37 0 0 1 0 -37" fill="none" stroke="inherit" stroke-width="5.272727272727273" transform="scale(0.55)"></path>
  <path id="path-yg5wqx0pjs-3" d="M0 -34.641L40 34.641L-40 34.641Z" fill="none" stroke="inherit" stroke-width="5.272727272727273" transform="scale(0.55)"></path>
</defs><path id="path0" d="M 78.92742852709313 164.97397769026787
c 0 24.860423426663523 -6.082869561843202 7.140759920424629 -13.223629482267832 7.140759920424629
S 52.48016956255747 189.8344011169314 52.48016956255747 164.97397769026787
s 6.082869561843202 -7.140759920424629 13.223629482267832 -7.140759920424629
S 78.92742852709313 140.11355426360436 78.92742852709313 164.97397769026787
z" fill="none" stroke="none"></path>
<use xlink:href="#path-yg5wqx0pjs-2" x="0" y="0" stroke="#9e5286">
  <animateMotion begin="-1.0333929855011406s" dur="4.025818173049372s" keyPoints="1;0" keyTimes="0;1" repeatCount="indefinite" calcMode="linear">
    <mpath xlink:href="#path0"></mpath>
  </animateMotion>
</use><path id="path1" d="M 106.0684011210579 598.2713642872761
c 0 55.64833142793772 -13.616081094069866 15.984095197386367 -29.600176291456233 15.984095197386367
S 46.86804853814543 653.9196957152138 46.86804853814543 598.2713642872761
s 13.616081094069866 -15.984095197386367 29.600176291456233 -15.984095197386367
S 106.0684011210579 542.6230328593384 106.0684011210579 598.2713642872761
z" fill="none" stroke="none"></path>
<use xlink:href="#path-yg5wqx0pjs-2" x="0" y="0" stroke="#7b529e">
  <animateMotion begin="-0.4469467278981257s" dur="4.98403976159899s" keyPoints="0;1" keyTimes="0;1" repeatCount="indefinite" calcMode="linear">
    <mpath xlink:href="#path1"></mpath>
  </animateMotion>
</use><path id="path2" d="M 152.94645984429852 857.7243060232776
c 0 26.568741661874046 -6.500862321522372 7.631447073091481 -14.132309394613854 7.631447073091481
S 124.6818410550708 884.2930476851516 124.6818410550708 857.7243060232776
s 6.500862321522372 -7.631447073091481 14.132309394613854 -7.631447073091481
S 152.94645984429852 831.1555643614035 152.94645984429852 857.7243060232776
z" fill="none" stroke="none"></path>
<use xlink:href="#path-yg5wqx0pjs-1" x="0" y="0" stroke="#9e5286">
  <animateMotion begin="-0.849045701472745s" dur="2.6800966337742627s" keyPoints="1;0" keyTimes="0;1" repeatCount="indefinite" calcMode="linear">
    <mpath xlink:href="#path2"></mpath>
  </animateMotion>
</use><path id="path3" d="M 175.36269828841964 228.8200692573412
c 0 19.77974884437472 -4.83972578107041 5.681417221256568 -10.521143002326978 5.681417221256568
S 154.3204122837657 248.59981810171593 154.3204122837657 228.8200692573412
s 4.83972578107041 -5.681417221256568 10.521143002326978 -5.681417221256568
S 175.36269828841964 209.04032041296648 175.36269828841964 228.8200692573412
z" fill="none" stroke="none"></path>
<use xlink:href="#path-yg5wqx0pjs-2" x="0" y="0" stroke="#52939e">
  <animateMotion begin="-0.286750967006021s" dur="4.981891138223023s" keyPoints="1;0" keyTimes="0;1" repeatCount="indefinite" calcMode="linear">
    <mpath xlink:href="#path3"></mpath>
  </animateMotion>
</use><path id="path4" d="M 205.2113638138656 955.0031226464096
c 0 30.919033322007067 -7.5652953872996 8.880998932916924 -16.446294320216523 8.880998932916924
S 172.31877517343258 985.9221559684166 172.31877517343258 955.0031226464096
s 7.5652953872996 -8.880998932916924 16.446294320216523 -8.880998932916924
S 205.2113638138656 924.0840893244025 205.2113638138656 955.0031226464096
z" fill="none" stroke="none"></path>
<use xlink:href="#path-yg5wqx0pjs-1" x="0" y="0" stroke="#9e5286">
  <animateMotion begin="-0.8441033457709824s" dur="3.243211051169189s" keyPoints="1;0" keyTimes="0;1" repeatCount="indefinite" calcMode="linear">
    <mpath xlink:href="#path4"></mpath>
  </animateMotion>
</use><path id="path5" d="M 260.99263495581977 830.2119624890947
c 0 54.0112653571264 -13.215522374616032 15.513874091940561 -28.729396466556594 15.513874091940561
S 203.5338420227066 884.2232278462211 203.5338420227066 830.2119624890947
s 13.215522374616032 -15.513874091940561 28.729396466556594 -15.513874091940561
S 260.99263495581977 776.2006971319684 260.99263495581977 830.2119624890947
z" fill="none" stroke="none"></path>
<use xlink:href="#path-yg5wqx0pjs-3" x="0" y="0" stroke="#9e5286">
  <animateMotion begin="-0.3888970806081123s" dur="3.1182669825790397s" keyPoints="0;1" keyTimes="0;1" repeatCount="indefinite" calcMode="linear">
    <mpath xlink:href="#path5"></mpath>
  </animateMotion>
</use><path id="path6" d="M 308.27790829958263 995.3955898325464
c 0 50.895545684518936 -12.453165433446122 14.618933334915015 -27.072098768361137 14.618933334915015
S 254.13371076286037 1046.2911355170654 254.13371076286037 995.3955898325464
s 12.453165433446122 -14.618933334915015 27.072098768361137 -14.618933334915015
S 308.27790829958263 944.5000441480274 308.27790829958263 995.3955898325464
z" fill="none" stroke="none"></path>
<use xlink:href="#path-yg5wqx0pjs-1" x="0" y="0" stroke="#7b529e">
  <animateMotion begin="-0.39294847230534047s" dur="4.26600205395034s" keyPoints="1;0" keyTimes="0;1" repeatCount="indefinite" calcMode="linear">
    <mpath xlink:href="#path6"></mpath>
  </animateMotion>
</use><path id="path7" d="M 357.8768865920066 923.9003188367805
c 0 63.095959469058414 -15.43837306157812 18.12330750706997 -33.56168056864809 18.12330750706997
S 290.75352545471037 986.9962783058388 290.75352545471037 923.9003188367805
s 15.43837306157812 -18.12330750706997 33.56168056864809 -18.12330750706997
S 357.8768865920066 860.8043593677221 357.8768865920066 923.9003188367805
z" fill="none" stroke="none"></path>
<use xlink:href="#path-yg5wqx0pjs-3" x="0" y="0" stroke="#7b529e">
  <animateMotion begin="-0.888430251135138s" dur="2.595122265588243s" keyPoints="0;1" keyTimes="0;1" repeatCount="indefinite" calcMode="linear">
    <mpath xlink:href="#path7"></mpath>
  </animateMotion>
</use><path id="path8" d="M 360.6775563167655 594.388711087231
c 0 28.79246624676535 -7.044965145485139 8.270176475134729 -15.315141620619867 8.270176475134729
S 330.0472730755258 623.1811773339963 330.0472730755258 594.388711087231
s 7.044965145485139 -8.270176475134729 15.315141620619867 -8.270176475134729
S 360.6775563167655 565.5962448404656 360.6775563167655 594.388711087231
z" fill="none" stroke="none"></path>
<use xlink:href="#path-yg5wqx0pjs-1" x="0" y="0" stroke="#7b529e">
  <animateMotion begin="-0.7163106380567308s" dur="4.700959896023501s" keyPoints="0;1" keyTimes="0;1" repeatCount="indefinite" calcMode="linear">
    <mpath xlink:href="#path8"></mpath>
  </animateMotion>
</use><path id="path9" d="M 406.01530416591544 764.9239094067443
c 0 59.020315105558716 -14.441140930083513 16.952643700532825 -31.393784630616338 16.952643700532825
S 343.2277349046828 823.944224512303 343.2277349046828 764.9239094067443
s 14.441140930083513 -16.952643700532825 31.393784630616338 -16.952643700532825
S 406.01530416591544 705.9035943011856 406.01530416591544 764.9239094067443
z" fill="none" stroke="none"></path>
<use xlink:href="#path-yg5wqx0pjs-2" x="0" y="0" stroke="#7b529e">
  <animateMotion begin="-0.039864090541156284s" dur="3.002080699802392s" keyPoints="0;1" keyTimes="0;1" repeatCount="indefinite" calcMode="linear">
    <mpath xlink:href="#path9"></mpath>
  </animateMotion>
</use><path id="path10" d="M 411.6490591586597 525.6032188765147
c 0 31.935645658542054 -7.81404095900497 9.173004604049314 -16.987045563054284 9.173004604049314
S 377.6749680325512 557.5388645350567 377.6749680325512 525.6032188765147
s 7.81404095900497 -9.173004604049314 16.987045563054284 -9.173004604049314
S 411.6490591586597 493.66757321797263 411.6490591586597 525.6032188765147
z" fill="none" stroke="none"></path>
<use xlink:href="#path-yg5wqx0pjs-3" x="0" y="0" stroke="#52939e">
  <animateMotion begin="-1.2381177536545032s" dur="3.1320490373332404s" keyPoints="0;1" keyTimes="0;1" repeatCount="indefinite" calcMode="linear">
    <mpath xlink:href="#path10"></mpath>
  </animateMotion>
</use><path id="path11" d="M 467.65894451921514 1034.6583476018227
c 0 43.27979137147369 -10.589736186637179 12.431429436487123 -23.021165623124304 12.431429436487123
S 421.6166132729665 1077.9381389732964 421.6166132729665 1034.6583476018227
s 10.589736186637179 -12.431429436487123 23.021165623124304 -12.431429436487123
S 467.65894451921514 991.378556230349 467.65894451921514 1034.6583476018227
z" fill="none" stroke="none"></path>
<use xlink:href="#path-yg5wqx0pjs-3" x="0" y="0" stroke="#52939e">
  <animateMotion begin="-0.11881083658680294s" dur="3.2382616546189253s" keyPoints="1;0" keyTimes="0;1" repeatCount="indefinite" calcMode="linear">
    <mpath xlink:href="#path11"></mpath>
  </animateMotion>
</use><path id="path12" d="M 490.83577010317333 865.7855992964801
c 0 39.70165838149031 -9.71423556142848 11.403667832981261 -21.11790339440974 11.403667832981261
S 448.5999633143539 905.4872576779704 448.5999633143539 865.7855992964801
s 9.71423556142848 -11.403667832981261 21.11790339440974 -11.403667832981261
S 490.83577010317333 826.0839409149897 490.83577010317333 865.7855992964801
z" fill="none" stroke="none"></path>
<use xlink:href="#path-yg5wqx0pjs-2" x="0" y="0" stroke="#52939e">
  <animateMotion begin="-0.7008760056278606s" dur="3.285767392642777s" keyPoints="1;0" keyTimes="0;1" repeatCount="indefinite" calcMode="linear">
    <mpath xlink:href="#path12"></mpath>
  </animateMotion>
</use><path id="path13" d="M 555.2812031147234 361.1344518188206
c 0 56.29446578020066 -13.774177797283139 16.16968697941934 -29.943864776702476 16.16968697941934
S 495.39347356131844 417.42891759902125 495.39347356131844 361.1344518188206
s 13.774177797283139 -16.16968697941934 29.943864776702476 -16.16968697941934
S 555.2812031147234 304.83998603861994 555.2812031147234 361.1344518188206
z" fill="none" stroke="none"></path>
<use xlink:href="#path-yg5wqx0pjs-3" x="0" y="0" stroke="#7b529e">
  <animateMotion begin="-0.031316045316294915s" dur="4.798765675694005s" keyPoints="0;1" keyTimes="0;1" repeatCount="indefinite" calcMode="linear">
    <mpath xlink:href="#path13"></mpath>
  </animateMotion>
</use><path id="path14" d="M 551.8342417443563 289.45767821300956
c 0 28.93454323875966 -7.079728664802895 8.31098582389905 -15.390714488701946 8.31098582389905
S 521.0528127669523 318.3922214517692 521.0528127669523 289.45767821300956
s 7.079728664802895 -8.31098582389905 15.390714488701946 -8.31098582389905
S 551.8342417443563 260.5231349742499 551.8342417443563 289.45767821300956
z" fill="none" stroke="none"></path>
<use xlink:href="#path-yg5wqx0pjs-3" x="0" y="0" stroke="#7b529e">
  <animateMotion begin="-0.81248345465637s" dur="4.02247929119272s" keyPoints="0;1" keyTimes="0;1" repeatCount="indefinite" calcMode="linear">
    <mpath xlink:href="#path14"></mpath>
  </animateMotion>
</use><path id="path15" d="M 607.011534712173 1021.1096743412222
c 0 47.11373192240082 -11.527828023566157 13.532667679838534 -25.06049570340469 13.532667679838534
S 556.8905433053635 1068.223406263623 556.8905433053635 1021.1096743412222
s 11.527828023566157 -13.532667679838534 25.06049570340469 -13.532667679838534
S 607.011534712173 973.9959424188214 607.011534712173 1021.1096743412222
z" fill="none" stroke="none"></path>
<use xlink:href="#path-yg5wqx0pjs-3" x="0" y="0" stroke="#52939e">
  <animateMotion begin="-0.7730570391383386s" dur="4.571243879345867s" keyPoints="0;1" keyTimes="0;1" repeatCount="indefinite" calcMode="linear">
    <mpath xlink:href="#path15"></mpath>
  </animateMotion>
</use><path id="path16" d="M 630.1529911897559 663.2074972196725
c 0 48.771736190225965 -11.933509918885076 14.008902948256393 -25.94241286714147 14.008902948256393
S 578.268165455473 711.9792334098985 578.268165455473 663.2074972196725
s 11.933509918885076 -14.008902948256393 25.94241286714147 -14.008902948256393
S 630.1529911897559 614.4357610294466 630.1529911897559 663.2074972196725
z" fill="none" stroke="none"></path>
<use xlink:href="#path-yg5wqx0pjs-1" x="0" y="0" stroke="#9e5286">
  <animateMotion begin="-0.16860439451481354s" dur="4.643327374812311s" keyPoints="0;1" keyTimes="0;1" repeatCount="indefinite" calcMode="linear">
    <mpath xlink:href="#path16"></mpath>
  </animateMotion>
</use><path id="path17" d="M 649.8841186637902 773.4873685090291
c 0 33.70649372019114 -8.247333569834 9.681652451544263 -17.928986021378265 9.681652451544263
S 614.0261466210337 807.1938622292203 614.0261466210337 773.4873685090291
s 8.247333569834 -9.681652451544263 17.928986021378265 -9.681652451544263
S 649.8841186637902 739.780874788838 649.8841186637902 773.4873685090291
z" fill="none" stroke="none"></path>
<use xlink:href="#path-yg5wqx0pjs-3" x="0" y="0" stroke="#7b529e">
  <animateMotion begin="-0.2171783913640278s" dur="4.626854758759565s" keyPoints="0;1" keyTimes="0;1" repeatCount="indefinite" calcMode="linear">
    <mpath xlink:href="#path17"></mpath>
  </animateMotion>
</use><path id="path18" d="M 710.006758711428 447.1190097152902
c 0 52.201294198877264 -12.772657091214649 14.99398875925198 -27.76664585046663 14.99398875925198
S 654.4734670104948 499.3203039141674 654.4734670104948 447.1190097152902
s 12.772657091214649 -14.99398875925198 27.76664585046663 -14.99398875925198
S 710.006758711428 394.91771551641295 710.006758711428 447.1190097152902
z" fill="none" stroke="none"></path>
<use xlink:href="#path-yg5wqx0pjs-3" x="0" y="0" stroke="#7b529e">
  <animateMotion begin="-1.0765390675953408s" dur="3.1095514602342162s" keyPoints="0;1" keyTimes="0;1" repeatCount="indefinite" calcMode="linear">
    <mpath xlink:href="#path18"></mpath>
  </animateMotion>
</use><path id="path19" d="M 753.3691761843376 571.7796739285916
c 0 48.605539840985344 -11.892844854709178 13.961165699006429 -25.854010553715607 13.961165699006429
S 701.6611550769063 620.3852137695769 701.6611550769063 571.7796739285916
s 11.892844854709178 -13.961165699006429 25.854010553715607 -13.961165699006429
S 753.3691761843376 523.1741340876063 753.3691761843376 571.7796739285916
z" fill="none" stroke="none"></path>
<use xlink:href="#path-yg5wqx0pjs-2" x="0" y="0" stroke="#9e5286">
  <animateMotion begin="-1.226573287439669s" dur="3.174816778493825s" keyPoints="1;0" keyTimes="0;1" repeatCount="indefinite" calcMode="linear">
    <mpath xlink:href="#path19"></mpath>
  </animateMotion>
</use><path id="path20" d="M 787.3127153966335 220.2876484108248
c 0 60.288901272051326 -14.751539672948727 17.317024833461552 -32.068564506410276 17.317024833461552
S 723.1755863838129 280.57654968287613 723.1755863838129 220.2876484108248
s 14.751539672948727 -17.317024833461552 32.068564506410276 -17.317024833461552
S 787.3127153966335 159.99874713877347 787.3127153966335 220.2876484108248
z" fill="none" stroke="none"></path>
<use xlink:href="#path-yg5wqx0pjs-1" x="0" y="0" stroke="#52939e">
  <animateMotion begin="-0.4089411958411425s" dur="4.554631584750107s" keyPoints="0;1" keyTimes="0;1" repeatCount="indefinite" calcMode="linear">
    <mpath xlink:href="#path20"></mpath>
  </animateMotion>
</use><path id="path21" d="M 792.8682934064097 91.2384255394388
c 0 19.445922549104697 -4.758044879036255 5.585530944955605 -10.34357582399186 5.585530944955605
S 772.1811417584261 110.68434808854349 772.1811417584261 91.2384255394388
s 4.758044879036255 -5.585530944955605 10.34357582399186 -5.585530944955605
S 792.8682934064097 71.7925029903341 792.8682934064097 91.2384255394388
z" fill="none" stroke="none"></path>
<use xlink:href="#path-yg5wqx0pjs-3" x="0" y="0" stroke="#52939e">
  <animateMotion begin="-0.21096484061712562s" dur="4.7695098887160885s" keyPoints="1;0" keyTimes="0;1" repeatCount="indefinite" calcMode="linear">
    <mpath xlink:href="#path21"></mpath>
  </animateMotion>
</use><path id="path22" d="M 832.6074566696733 1029.3198967416197
c 0 21.991409950792498 -5.380876902853483 6.316681581610611 -11.697558484464095 6.316681581610611
S 809.212339700745 1051.3113066924122 809.212339700745 1029.3198967416197
s 5.380876902853483 -6.316681581610611 11.697558484464095 -6.316681581610611
S 832.6074566696733 1007.3284867908272 832.6074566696733 1029.3198967416197
z" fill="none" stroke="none"></path>
<use xlink:href="#path-yg5wqx0pjs-1" x="0" y="0" stroke="#9e5286">
  <animateMotion begin="-0.5925386828480708s" dur="2.8860813901855713s" keyPoints="0;1" keyTimes="0;1" repeatCount="indefinite" calcMode="linear">
    <mpath xlink:href="#path22"></mpath>
  </animateMotion>
</use><path id="path23" d="M 869.6065032339113 174.8996451593825
c 0 39.22056642949855 -9.596521573175176 11.26548184677086 -20.862003419946035 11.26548184677086
S 827.8824963940192 214.12021158888103 827.8824963940192 174.8996451593825
s 9.596521573175176 -11.26548184677086 20.862003419946035 -11.26548184677086
S 869.6065032339113 135.67907872988394 869.6065032339113 174.8996451593825
z" fill="none" stroke="none"></path>
<use xlink:href="#path-yg5wqx0pjs-2" x="0" y="0" stroke="#7b529e">
  <animateMotion begin="-1.1927760757210513s" dur="4.398835572971555s" keyPoints="0;1" keyTimes="0;1" repeatCount="indefinite" calcMode="linear">
    <mpath xlink:href="#path23"></mpath>
  </animateMotion>
</use><path id="path24" d="M 937.8540192224983 206.76107072423406
c 0 64.49344659425286 -15.780311400721443 18.52471338345561 -34.30502478417705 18.52471338345561
S 869.2439696541443 271.25451731848693 869.2439696541443 206.76107072423406
s 15.780311400721443 -18.52471338345561 34.30502478417705 -18.52471338345561
S 937.8540192224983 142.2676241299812 937.8540192224983 206.76107072423406
z" fill="none" stroke="none"></path>
<use xlink:href="#path-yg5wqx0pjs-2" x="0" y="0" stroke="#9e5286">
  <animateMotion begin="-0.578134168871979s" dur="4.245209193627992s" keyPoints="1;0" keyTimes="0;1" repeatCount="indefinite" calcMode="linear">
    <mpath xlink:href="#path24"></mpath>
  </animateMotion>
</use><path id="path25" d="M 926.8263428932594 896.7206875411882
c 0 20.29928815363985 -4.966847101422515 5.830646597322085 -10.7974936987446 5.830646597322085
S 905.2313554957702 917.0199756948281 905.2313554957702 896.7206875411882
s 4.966847101422515 -5.830646597322085 10.7974936987446 -5.830646597322085
S 926.8263428932594 876.4213993875484 926.8263428932594 896.7206875411882
z" fill="none" stroke="none"></path>
<use xlink:href="#path-yg5wqx0pjs-2" x="0" y="0" stroke="#7b529e">
  <animateMotion begin="-0.2859306082218538s" dur="3.1917598355538805s" keyPoints="0;1" keyTimes="0;1" repeatCount="indefinite" calcMode="linear">
    <mpath xlink:href="#path25"></mpath>
  </animateMotion>
</use><path id="path26" d="M 987.3250640447578 901.9112123815775
c 0 41.99053516323471 -10.274279880365938 12.061111163907844 -22.335391044273784 12.061111163907844
S 942.6542819562102 943.9017475448122 942.6542819562102 901.9112123815775
s 10.274279880365938 -12.061111163907844 22.335391044273784 -12.061111163907844
S 987.3250640447578 859.9206772183427 987.3250640447578 901.9112123815775
z" fill="none" stroke="none"></path>
<use xlink:href="#path-yg5wqx0pjs-2" x="0" y="0" stroke="#9e5286">
  <animateMotion begin="-0.3898283970026777s" dur="3.0074937928129644s" keyPoints="1;0" keyTimes="0;1" repeatCount="indefinite" calcMode="linear">
    <mpath xlink:href="#path26"></mpath>
  </animateMotion>
</use><path id="path27" d="M 1034.0204274596783 441.0372515609752
c 0 49.916311189721156 -12.213565503867942 14.337663852366717 -26.551229356234657 14.337663852366717
S 980.917968747209 490.9535627506964 980.917968747209 441.0372515609752
s 12.213565503867942 -14.337663852366717 26.551229356234657 -14.337663852366717
S 1034.0204274596783 391.12094037125405 1034.0204274596783 441.0372515609752
z" fill="none" stroke="none"></path>
<use xlink:href="#path-yg5wqx0pjs-2" x="0" y="0" stroke="#52939e">
  <animateMotion begin="-1.1431185457511484s" dur="3.785669318471292s" keyPoints="0;1" keyTimes="0;1" repeatCount="indefinite" calcMode="linear">
    <mpath xlink:href="#path27"></mpath>
  </animateMotion>
</use><path id="path28" d="M 1053.2065225397812 430.06923630793267
c 0 31.35122122462619 -7.671043491131939 9.0051380113288 -16.67618150246074 9.0051380113288
S 1019.8541595348596 461.4204575325589 1019.8541595348596 430.06923630793267
s 7.671043491131939 -9.0051380113288 16.67618150246074 -9.0051380113288
S 1053.2065225397812 398.71801508330645 1053.2065225397812 430.06923630793267
z" fill="none" stroke="none"></path>
<use xlink:href="#path-yg5wqx0pjs-3" x="0" y="0" stroke="#7b529e">
  <animateMotion begin="-0.9943816884156585s" dur="4.060155498855597s" keyPoints="1;0" keyTimes="0;1" repeatCount="indefinite" calcMode="linear">
    <mpath xlink:href="#path28"></mpath>
  </animateMotion>
</use><path id="path29" d="M 1066.0766624398855 504.8039800971284
c 0 41.51841213171119 -10.158760415205927 11.925501356980872 -22.0842617721868 11.925501356980872
S 1021.9081388955118 546.3223922288396 1021.9081388955118 504.8039800971284
s 10.158760415205927 -11.925501356980872 22.0842617721868 -11.925501356980872
S 1066.0766624398855 463.28556796541716 1066.0766624398855 504.8039800971284
z" fill="none" stroke="none"></path>
<use xlink:href="#path-yg5wqx0pjs-1" x="0" y="0" stroke="#52939e">
  <animateMotion begin="-1.1470288216768165s" dur="4.196037206671939s" keyPoints="0;1" keyTimes="0;1" repeatCount="indefinite" calcMode="linear">
    <mpath xlink:href="#path29"></mpath>
  </animateMotion>
</use><path id="path30" d="M 1112.3842072558177 189.2571805137339
c 0 35.65104851620258 -8.723128892262332 10.240194786568827 -18.96332367883116 10.240194786568827
S 1074.4575598981555 224.90822902993648 1074.4575598981555 189.2571805137339
s 8.723128892262332 -10.240194786568827 18.96332367883116 -10.240194786568827
S 1112.3842072558177 153.60613199753135 1112.3842072558177 189.2571805137339
z" fill="none" stroke="none"></path>
<use xlink:href="#path-yg5wqx0pjs-3" x="0" y="0" stroke="#9e5286">
  <animateMotion begin="-0.5247851813215121s" dur="4.404584127402414s" keyPoints="1;0" keyTimes="0;1" repeatCount="indefinite" calcMode="linear">
    <mpath xlink:href="#path30"></mpath>
  </animateMotion>
</use><path id="path31" d="M 1148.0341037315902 484.6203946269522
c 0 27.520342067854116 -6.733700718730262 7.904779104596396 -14.638479823326659 7.904779104596396
S 1118.757144084937 512.1407366948063 1118.757144084937 484.6203946269522
s 6.733700718730262 -7.904779104596396 14.638479823326659 -7.904779104596396
S 1148.0341037315902 457.10005255909806 1148.0341037315902 484.6203946269522
z" fill="none" stroke="none"></path>
<use xlink:href="#path-yg5wqx0pjs-1" x="0" y="0" stroke="#52939e">
  <animateMotion begin="-0.3381876856729259s" dur="2.629082730042148s" keyPoints="0;1" keyTimes="0;1" repeatCount="indefinite" calcMode="linear">
    <mpath xlink:href="#path31"></mpath>
  </animateMotion>
</use><path id="path32" d="M 1194.8175168798937 980.2510823061813
c 0 34.749412322683675 -8.502515781082174 9.981214177792118 -18.483729958874292 9.981214177792118
S 1157.850056962145 1015.000494628865 1157.850056962145 980.2510823061813
s 8.502515781082174 -9.981214177792118 18.483729958874292 -9.981214177792118
S 1194.8175168798937 945.5016699834975 1194.8175168798937 980.2510823061813
z" fill="none" stroke="none"></path>
<use xlink:href="#path-yg5wqx0pjs-2" x="0" y="0" stroke="#52939e">
  <animateMotion begin="-1.1145693547081919s" dur="3.8833618225570303s" keyPoints="1;0" keyTimes="0;1" repeatCount="indefinite" calcMode="linear">
    <mpath xlink:href="#path32"></mpath>
  </animateMotion>
</use><path id="path33" d="M 1241.088785201765 630.026890219238
c 0 63.26997334867333 -15.480950925739219 18.173290217172127 -33.654241142911346 18.173290217172127
S 1173.7803029159422 693.2968635679114 1173.7803029159422 630.026890219238
s 15.480950925739219 -18.173290217172127 33.654241142911346 -18.173290217172127
S 1241.088785201765 566.7569168705646 1241.088785201765 630.026890219238
z" fill="none" stroke="none"></path>
<use xlink:href="#path-yg5wqx0pjs-1" x="0" y="0" stroke="#7b529e">
  <animateMotion begin="-1.247070857365264s" dur="4.097303781777263s" keyPoints="0;1" keyTimes="0;1" repeatCount="indefinite" calcMode="linear">
    <mpath xlink:href="#path33"></mpath>
  </animateMotion>
</use><path id="path34" d="M 1277.5612581659846 929.5862046167128
c 0 51.206172561785436 -12.529169882138989 14.708155948597945 -27.237325830736935 14.708155948597945
S 1223.0866065045109 980.7923771784983 1223.0866065045109 929.5862046167128
s 12.529169882138989 -14.708155948597945 27.237325830736935 -14.708155948597945
S 1277.5612581659846 878.3800320549274 1277.5612581659846 929.5862046167128
z" fill="none" stroke="none"></path>
<use xlink:href="#path-yg5wqx0pjs-3" x="0" y="0" stroke="#7b529e">
  <animateMotion begin="-0.29390207323452394s" dur="3.6948009980289s" keyPoints="1;0" keyTimes="0;1" repeatCount="indefinite" calcMode="linear">
    <mpath xlink:href="#path34"></mpath>
  </animateMotion>
</use><path id="path35" d="M 1291.8141506137704 936.7595676772082
c 0 30.71617231126846 -7.515659182544409 8.822730344726047 -16.338389527270458 8.822730344726047
S 1259.1373715592295 967.4757399884767 1259.1373715592295 936.7595676772082
s 7.515659182544409 -8.822730344726047 16.338389527270458 -8.822730344726047
S 1291.8141506137704 906.0433953659398 1291.8141506137704 936.7595676772082
z" fill="none" stroke="none"></path>
<use xlink:href="#path-yg5wqx0pjs-1" x="0" y="0" stroke="#7b529e">
  <animateMotion begin="-1.0375068858268144s" dur="4.37828798001493s" keyPoints="1;0" keyTimes="0;1" repeatCount="indefinite" calcMode="linear">
    <mpath xlink:href="#path35"></mpath>
  </animateMotion>
</use><path id="path36" d="M 1332.0665588656004 633.7095361602774
c 0 64.27322770882071 -15.726428056413578 18.461459022746375 -34.18788707915995 18.461459022746375
S 1263.6907847072805 697.9827638690981 1263.6907847072805 633.7095361602774
s 15.726428056413578 -18.461459022746375 34.18788707915995 -18.461459022746375
S 1332.0665588656004 569.4363084514566 1332.0665588656004 633.7095361602774
z" fill="none" stroke="none"></path>
<use xlink:href="#path-yg5wqx0pjs-2" x="0" y="0" stroke="#7b529e">
  <animateMotion begin="-1.1548281754037057s" dur="4.798819969794528s" keyPoints="0;1" keyTimes="0;1" repeatCount="indefinite" calcMode="linear">
    <mpath xlink:href="#path36"></mpath>
  </animateMotion>
</use><path id="path37" d="M 1357.460618962077 334.5890123119361
c 0 36.65595887702916 -8.96901121459224 10.52883925191263 -19.497850466504868 10.52883925191263
S 1318.4649180290673 371.2449711889652 1318.4649180290673 334.5890123119361
s 8.96901121459224 -10.52883925191263 19.497850466504868 -10.52883925191263
S 1357.460618962077 297.9330534349069 1357.460618962077 334.5890123119361
z" fill="none" stroke="none"></path>
<use xlink:href="#path-yg5wqx0pjs-2" x="0" y="0" stroke="#7b529e">
  <animateMotion begin="-1.1494288095138592s" dur="2.901185240443994s" keyPoints="0;1" keyTimes="0;1" repeatCount="indefinite" calcMode="linear">
    <mpath xlink:href="#path37"></mpath>
  </animateMotion>
</use><path id="path38" d="M 1409.719980745254 609.8119232157952
c 0 54.97561169837946 -13.45147945811412 15.790867189960057 -29.24234664807418 15.790867189960057
S 1351.2352874491057 664.7875349141747 1351.2352874491057 609.8119232157952
s 13.45147945811412 -15.790867189960057 29.24234664807418 -15.790867189960057
S 1409.719980745254 554.8363115174158 1409.719980745254 609.8119232157952
z" fill="none" stroke="none"></path>
<use xlink:href="#path-yg5wqx0pjs-1" x="0" y="0" stroke="#9e5286">
  <animateMotion begin="-0.6206876736862837s" dur="2.724325857005066s" keyPoints="1;0" keyTimes="0;1" repeatCount="indefinite" calcMode="linear">
    <mpath xlink:href="#path38"></mpath>
  </animateMotion>
</use><path id="path39" d="M 1440.654045760267 170.1449620825798
c 0 57.52938455920265 -14.07633877512405 16.52439769253693 -30.60073646766098 16.52439769253693
S 1379.4525728249453 227.67434664178245 1379.4525728249453 170.1449620825798
s 14.07633877512405 -16.52439769253693 30.60073646766098 -16.52439769253693
S 1440.654045760267 112.61557752337717 1440.654045760267 170.1449620825798
z" fill="none" stroke="none"></path>
<use xlink:href="#path-yg5wqx0pjs-3" x="0" y="0" stroke="#7b529e">
  <animateMotion begin="-0.9668577406370717s" dur="3.7996697512881537s" keyPoints="0;1" keyTimes="0;1" repeatCount="indefinite" calcMode="linear">
    <mpath xlink:href="#path39"></mpath>
  </animateMotion>
</use><path id="path40" d="M 1463.8522855705744 744.8912152644525
c 0 50.520976150177454 -12.361515441000865 14.511344213348844 -26.872859654349707 14.511344213348844
S 1410.106566261875 795.41219141463 1410.106566261875 744.8912152644525
s 12.361515441000865 -14.511344213348844 26.872859654349707 -14.511344213348844
S 1463.8522855705744 694.370239114275 1463.8522855705744 744.8912152644525
z" fill="none" stroke="none"></path>
<use xlink:href="#path-yg5wqx0pjs-2" x="0" y="0" stroke="#52939e">
  <animateMotion begin="-0.30906335098073723s" dur="2.7831592464199186s" keyPoints="1;0" keyTimes="0;1" repeatCount="indefinite" calcMode="linear">
    <mpath xlink:href="#path40"></mpath>
  </animateMotion>
</use><path id="path41" d="M 1487.166639229421 851.4956907554437
c 0 25.918059192683017 -6.341652781188397 7.44454891704725 -13.786201698235647 7.44454891704725
S 1459.5942358329498 877.4137499481267 1459.5942358329498 851.4956907554437
s 6.341652781188397 -7.44454891704725 13.786201698235647 -7.44454891704725
S 1487.166639229421 825.5776315627606 1487.166639229421 851.4956907554437
z" fill="none" stroke="none"></path>
<use xlink:href="#path-yg5wqx0pjs-3" x="0" y="0" stroke="#7b529e">
  <animateMotion begin="-0.1433263938336388s" dur="2.922343044345234s" keyPoints="0;1" keyTimes="0;1" repeatCount="indefinite" calcMode="linear">
    <mpath xlink:href="#path41"></mpath>
  </animateMotion>
</use><path id="path42" d="M 1535.054414620187 425.9045443218516
c 0 45.67016108855337 -11.17461388336944 13.11802499352065 -24.29263887689009 13.11802499352065
S 1486.4691368664066 471.57470541040493 1486.4691368664066 425.9045443218516
s 11.17461388336944 -13.11802499352065 24.29263887689009 -13.11802499352065
S 1535.054414620187 380.2343832332982 1535.054414620187 425.9045443218516
z" fill="none" stroke="none"></path>
<use xlink:href="#path-yg5wqx0pjs-2" x="0" y="0" stroke="#9e5286">
  <animateMotion begin="-0.06520385176537283s" dur="2.6064858221982843s" keyPoints="0;1" keyTimes="0;1" repeatCount="indefinite" calcMode="linear">
    <mpath xlink:href="#path42"></mpath>
  </animateMotion>
</use><path id="path43" d="M 1570.8892400880807 146.29101910876253
c 0 38.98148555021608 -9.538023060159253 11.196809679317385 -20.734832739476637 11.196809679317385
S 1529.4195746091275 185.27250465897862 1529.4195746091275 146.29101910876253
s 9.538023060159253 -11.196809679317385 20.734832739476637 -11.196809679317385
S 1570.8892400880807 107.30953355854645 1570.8892400880807 146.29101910876253
z" fill="none" stroke="none"></path>
<use xlink:href="#path-yg5wqx0pjs-1" x="0" y="0" stroke="#7b529e">
  <animateMotion begin="-0.3666963434074311s" dur="3.269763804503144s" keyPoints="0;1" keyTimes="0;1" repeatCount="indefinite" calcMode="linear">
    <mpath xlink:href="#path43"></mpath>
  </animateMotion>
</use><path id="path44" d="M 1579.021760309383 538.1593184130722
c 0 26.82533774619423 -6.563646469813481 7.705150203694088 -14.26879667350757 7.705150203694088
S 1550.484166962368 564.9846561592665 1550.484166962368 538.1593184130722
s 6.563646469813481 -7.705150203694088 14.26879667350757 -7.705150203694088
S 1579.021760309383 511.333980666878 1579.021760309383 538.1593184130722
z" fill="none" stroke="none"></path>
<use xlink:href="#path-yg5wqx0pjs-3" x="0" y="0" stroke="#9e5286">
  <animateMotion begin="-0.9712616886128335s" dur="4.268025813010844s" keyPoints="0;1" keyTimes="0;1" repeatCount="indefinite" calcMode="linear">
    <mpath xlink:href="#path44"></mpath>
  </animateMotion>
</use><path id="path45" d="M 1626.6156680782208 647.158997434734
c 0 40.48649025398178 -9.90626889193171 11.629098264441573 -21.535367156373283 11.629098264441573
S 1583.5449337654743 687.6454876887158 1583.5449337654743 647.158997434734
s 9.90626889193171 -11.629098264441573 21.535367156373283 -11.629098264441573
S 1626.6156680782208 606.6725071807523 1626.6156680782208 647.158997434734
z" fill="none" stroke="none"></path>
<use xlink:href="#path-yg5wqx0pjs-2" x="0" y="0" stroke="#7b529e">
  <animateMotion begin="-1.0915236334401168s" dur="4.8408375571010485s" keyPoints="0;1" keyTimes="0;1" repeatCount="indefinite" calcMode="linear">
    <mpath xlink:href="#path45"></mpath>
  </animateMotion>
</use><path id="path46" d="M 1645.99685200767 117.70424207870568
c 0 33.277961651436755 -8.142479978543035 9.55856345307226 -17.701043431615297 9.55856345307226
S 1610.5947651444394 150.98220373014243 1610.5947651444394 117.70424207870568
s 8.142479978543035 -9.55856345307226 17.701043431615297 -9.55856345307226
S 1645.99685200767 84.42628042726892 1645.99685200767 117.70424207870568
z" fill="none" stroke="none"></path>
<use xlink:href="#path-yg5wqx0pjs-1" x="0" y="0" stroke="#7b529e">
  <animateMotion begin="-0.032502477022637616s" dur="3.565955508275848s" keyPoints="1;0" keyTimes="0;1" repeatCount="indefinite" calcMode="linear">
    <mpath xlink:href="#path46"></mpath>
  </animateMotion>
</use><path id="path47" d="M 1732.5363152273053 241.9138457957896
c 0 56.18707513803201 -13.74790136356102 16.138840731136852 -29.886742094697873 16.138840731136852
S 1672.7628310379096 298.1009209338216 1672.7628310379096 241.9138457957896
s 13.74790136356102 -16.138840731136852 29.886742094697873 -16.138840731136852
S 1732.5363152273053 185.72677065775758 1732.5363152273053 241.9138457957896
z" fill="none" stroke="none"></path>
<use xlink:href="#path-yg5wqx0pjs-3" x="0" y="0" stroke="#9e5286">
  <animateMotion begin="-0.05260047366633713s" dur="4.993351280877451s" keyPoints="1;0" keyTimes="0;1" repeatCount="indefinite" calcMode="linear">
    <mpath xlink:href="#path47"></mpath>
  </animateMotion>
</use><path id="path48" d="M 1715.749123158988 1009.1785274656188
c 0 44.65236673916669 -10.92557909575355 12.825679808058517 -23.751258903812065 12.825679808058517
S 1668.246605351364 1053.8308942047854 1668.246605351364 1009.1785274656188
s 10.92557909575355 -12.825679808058517 23.751258903812065 -12.825679808058517
S 1715.749123158988 964.5261607264521 1715.749123158988 1009.1785274656188
z" fill="none" stroke="none"></path>
<use xlink:href="#path-yg5wqx0pjs-3" x="0" y="0" stroke="#7b529e">
  <animateMotion begin="-0.34362569480430244s" dur="3.678181601398754s" keyPoints="1;0" keyTimes="0;1" repeatCount="indefinite" calcMode="linear">
    <mpath xlink:href="#path48"></mpath>
  </animateMotion>
</use><path id="path49" d="M 1788.8454110750574 216.1698149072325
c 0 52.820102420387634 -12.924067613499101 15.171731546281556 -28.095799159780658 15.171731546281556
S 1732.6538127554961 268.98991732762016 1732.6538127554961 216.1698149072325
s 12.924067613499101 -15.171731546281556 28.095799159780658 -15.171731546281556
S 1788.8454110750574 163.34971248684488 1788.8454110750574 216.1698149072325
z" fill="none" stroke="none"></path>
<use xlink:href="#path-yg5wqx0pjs-3" x="0" y="0" stroke="#9e5286">
  <animateMotion begin="-0.8284436330757834s" dur="3.4430031052155976s" keyPoints="1;0" keyTimes="0;1" repeatCount="indefinite" calcMode="linear">
    <mpath xlink:href="#path49"></mpath>
  </animateMotion>
</use><path id="path50" d="M 1792.7250943952913 906.5357727001033
c 0 19.333995425432818 -4.730658455159094 5.55338166475198 -10.284040119911072 5.55338166475198
S 1772.1570141554694 925.8697681255361 1772.1570141554694 906.5357727001033
s 4.730658455159094 -5.55338166475198 10.284040119911072 -5.55338166475198
S 1792.7250943952913 887.2017772746705 1792.7250943952913 906.5357727001033
z" fill="none" stroke="none"></path>
<use xlink:href="#path-yg5wqx0pjs-2" x="0" y="0" stroke="#52939e">
  <animateMotion begin="-0.8601969236122955s" dur="3.2262195710590884s" keyPoints="0;1" keyTimes="0;1" repeatCount="indefinite" calcMode="linear">
    <mpath xlink:href="#path50"></mpath>
  </animateMotion>
</use><path id="path51" d="M 1866.2687488020952 120.66677289476765
c 0 60.09811222677739 -14.704857246977443 17.262223724712655 -31.9670809716901 17.262223724712655
S 1802.3345868587148 180.76488512154503 1802.3345868587148 120.66677289476765
s 14.704857246977443 -17.262223724712655 31.9670809716901 -17.262223724712655
S 1866.2687488020952 60.56866066799026 1866.2687488020952 120.66677289476765
z" fill="none" stroke="none"></path>
<use xlink:href="#path-yg5wqx0pjs-2" x="0" y="0" stroke="#9e5286">
  <animateMotion begin="-0.6140302579758294s" dur="2.8433635172411287s" keyPoints="0;1" keyTimes="0;1" repeatCount="indefinite" calcMode="linear">
    <mpath xlink:href="#path51"></mpath>
  </animateMotion>
</use></g>
</svg>