<svg xmlns="http://www.w3.org/2000/svg" xmlns:xlink="http://www.w3.org/1999/xlink" style="margin:auto;background:#1f2330;display:block;z-index:1;position:relative" width="867" height="723" preserveAspectRatio="xMidYMid" viewBox="0 0 867 723">
<g transform="translate(433.5,361.5) scale(1,1) translate(-433.5,-361.5)"><defs>
<linearGradient id="lg-0.9820201894045044" x1="0" x2="0" y1="0" y2="1">
  <stop stop-color="#c5b9df" offset="0.3"></stop>
  <stop stop-color="#49516d" offset="0.6499999999999999"></stop>
  <stop stop-color="#49516d" offset="1"></stop>
</linearGradient>
<linearGradient id="fg-lg-0.9820201894045044" x1="0" x2="0" y1="0" y2="1">
  <stop stop-color="#c5b9df" stop-opacity="1" offset="0.3"></stop>
  <stop stop-color="#49516d" stop-opacity="0.66" offset="0.6499999999999999"></stop>
  <stop stop-color="#49516d" stop-opacity="0" offset="1"></stop>
</linearGradient>
<style type="text/css">
  path { fill: none; stroke: #c5b9df; stroke-width: 2px }
</style>
</defs>
<rect x="0" y="0" width="867" height="723" fill="url(#lg-0.9820201894045044)"></rect><path d="M0 216.9 L-6069 723"></path><path d="M6.6692307692307695 216.9 L-5968.961538461538 723"></path><path d="M13.338461538461539 216.9 L-5868.923076923077 723"></path><path d="M20.00769230769231 216.9 L-5768.884615384615 723"></path><path d="M26.676923076923078 216.9 L-5668.846153846154 723"></path><path d="M33.34615384615385 216.9 L-5568.807692307692 723"></path><path d="M40.01538461538462 216.9 L-5468.7692307692305 723"></path><path d="M46.684615384615384 216.9 L-5368.7307692307695 723"></path><path d="M53.353846153846156 216.9 L-5268.692307692308 723"></path><path d="M60.02307692307692 216.9 L-5168.653846153846 723"></path><path d="M66.6923076923077 216.9 L-5068.615384615385 723"></path><path d="M73.36153846153846 216.9 L-4968.576923076923 723"></path><path d="M80.03076923076924 216.9 L-4868.538461538461 723"></path><path d="M86.7 216.9 L-4768.5 723"></path><path d="M93.36923076923077 216.9 L-4668.461538461539 723"></path><path d="M100.03846153846153 216.9 L-4568.423076923077 723"></path><path d="M106.70769230769231 216.9 L-4468.384615384615 723"></path><path d="M113.37692307692308 216.9 L-4368.346153846154 723"></path><path d="M120.04615384615384 216.9 L-4268.307692307692 723"></path><path d="M126.71538461538462 216.9 L-4168.2692307692305 723"></path><path d="M133.3846153846154 216.9 L-4068.2307692307695 723"></path><path d="M140.05384615384617 216.9 L-3968.1923076923076 723"></path><path d="M146.72307692307692 216.9 L-3868.153846153846 723"></path><path d="M153.3923076923077 216.9 L-3768.1153846153848 723"></path><path d="M160.06153846153848 216.9 L-3668.076923076923 723"></path><path d="M166.73076923076923 216.9 L-3568.0384615384614 723"></path><path d="M173.4 216.9 L-3468 723"></path><path d="M180.06923076923076 216.9 L-3367.9615384615386 723"></path><path d="M186.73846153846154 216.9 L-3267.923076923077 723"></path><path d="M193.40769230769232 216.9 L-3167.8846153846152 723"></path><path d="M200.07692307692307 216.9 L-3067.846153846154 723"></path><path d="M206.74615384615385 216.9 L-2967.8076923076924 723"></path><path d="M213.41538461538462 216.9 L-2867.769230769231 723"></path><path d="M220.08461538461538 216.9 L-2767.730769230769 723"></path><path d="M226.75384615384615 216.9 L-2667.6923076923076 723"></path><path d="M233.42307692307693 216.9 L-2567.653846153846 723"></path><path d="M240.09230769230768 216.9 L-2467.6153846153848 723"></path><path d="M246.76153846153846 216.9 L-2367.576923076923 723"></path><path d="M253.43076923076924 216.9 L-2267.5384615384614 723"></path><path d="M260.1 216.9 L-2167.5 723"></path><path d="M266.7692307692308 216.9 L-2067.4615384615386 723"></path><path d="M273.4384615384615 216.9 L-1967.4230769230771 723"></path><path d="M280.10769230769233 216.9 L-1867.3846153846152 723"></path><path d="M286.7769230769231 216.9 L-1767.3461538461543 723"></path><path d="M293.44615384615383 216.9 L-1667.3076923076924 723"></path><path d="M300.11538461538464 216.9 L-1567.2692307692305 723"></path><path d="M306.7846153846154 216.9 L-1467.2307692307695 723"></path><path d="M313.45384615384614 216.9 L-1367.1923076923076 723"></path><path d="M320.12307692307695 216.9 L-1267.1538461538457 723"></path><path d="M326.7923076923077 216.9 L-1167.1153846153848 723"></path><path d="M333.46153846153845 216.9 L-1067.0769230769229 723"></path><path d="M340.1307692307692 216.9 L-967.0384615384619 723"></path><path d="M346.8 216.9 L-867 723"></path><path d="M353.46923076923076 216.9 L-766.9615384615381 723"></path><path d="M360.1384615384615 216.9 L-666.9230769230771 723"></path><path d="M366.8076923076923 216.9 L-566.8846153846152 723"></path><path d="M373.4769230769231 216.9 L-466.84615384615427 723"></path><path d="M380.1461538461538 216.9 L-366.8076923076924 723"></path><path d="M386.81538461538463 216.9 L-266.7692307692305 723"></path><path d="M393.4846153846154 216.9 L-166.7307692307695 723"></path><path d="M400.15384615384613 216.9 L-66.69230769230762 723"></path><path d="M406.82307692307694 216.9 L33.346153846154266 723"></path><path d="M413.4923076923077 216.9 L133.38461538461524 723"></path><path d="M420.16153846153844 216.9 L233.42307692307713 723"></path><path d="M426.83076923076925 216.9 L333.4615384615381 723"></path><path d="M433.5 216.9 L433.5 723"></path><path d="M440.16923076923075 216.9 L533.5384615384619 723"></path><path d="M446.83846153846156 216.9 L633.5769230769229 723"></path><path d="M453.5076923076923 216.9 L733.6153846153848 723"></path><path d="M460.17692307692306 216.9 L833.6538461538457 723"></path><path d="M466.84615384615387 216.9 L933.6923076923076 723"></path><path d="M473.5153846153846 216.9 L1033.7307692307695 723"></path><path d="M480.18461538461537 216.9 L1133.7692307692305 723"></path><path d="M486.8538461538462 216.9 L1233.8076923076924 723"></path><path d="M493.5230769230769 216.9 L1333.8461538461543 723"></path><path d="M500.1923076923077 216.9 L1433.8846153846152 723"></path><path d="M506.8615384615385 216.9 L1533.9230769230771 723"></path><path d="M513.5307692307692 216.9 L1633.961538461538 723"></path><path d="M520.2 216.9 L1734 723"></path><path d="M526.8692307692307 216.9 L1834.038461538462 723"></path><path d="M533.5384615384615 216.9 L1934.0769230769229 723"></path><path d="M540.2076923076924 216.9 L2034.1153846153848 723"></path><path d="M546.876923076923 216.9 L2134.1538461538457 723"></path><path d="M553.5461538461539 216.9 L2234.1923076923085 723"></path><path d="M560.2153846153847 216.9 L2334.2307692307695 723"></path><path d="M566.8846153846154 216.9 L2434.2692307692305 723"></path><path d="M573.5538461538462 216.9 L2534.3076923076915 723"></path><path d="M580.223076923077 216.9 L2634.3461538461543 723"></path><path d="M586.8923076923077 216.9 L2734.3846153846152 723"></path><path d="M593.5615384615385 216.9 L2834.423076923076 723"></path><path d="M600.2307692307693 216.9 L2934.461538461539 723"></path><path d="M606.9 216.9 L3034.5 723"></path><path d="M613.5692307692308 216.9 L3134.538461538461 723"></path><path d="M620.2384615384616 216.9 L3234.576923076924 723"></path><path d="M626.9076923076923 216.9 L3334.6153846153848 723"></path><path d="M633.5769230769231 216.9 L3434.6538461538457 723"></path><path d="M640.2461538461539 216.9 L3534.6923076923085 723"></path><path d="M646.9153846153846 216.9 L3634.7307692307695 723"></path><path d="M653.5846153846154 216.9 L3734.7692307692305 723"></path><path d="M660.2538461538461 216.9 L3834.8076923076915 723"></path><path d="M666.9230769230769 216.9 L3934.8461538461543 723"></path><path d="M673.5923076923077 216.9 L4034.8846153846152 723"></path><path d="M680.2615384615384 216.9 L4134.923076923076 723"></path><path d="M686.9307692307692 216.9 L4234.961538461539 723"></path><path d="M693.6 216.9 L4335 723"></path><path d="M700.2692307692307 216.9 L4435.038461538461 723"></path><path d="M706.9384615384615 216.9 L4535.076923076924 723"></path><path d="M713.6076923076923 216.9 L4635.115384615385 723"></path><path d="M720.276923076923 216.9 L4735.153846153846 723"></path><path d="M726.9461538461538 216.9 L4835.1923076923085 723"></path><path d="M733.6153846153846 216.9 L4935.2307692307695 723"></path><path d="M740.2846153846153 216.9 L5035.2692307692305 723"></path><path d="M746.9538461538461 216.9 L5135.3076923076915 723"></path><path d="M753.623076923077 216.9 L5235.346153846154 723"></path><path d="M760.2923076923076 216.9 L5335.384615384615 723"></path><path d="M766.9615384615385 216.9 L5435.423076923076 723"></path><path d="M773.6307692307693 216.9 L5535.461538461539 723"></path><path d="M780.3 216.9 L5635.5 723"></path><path d="M786.9692307692308 216.9 L5735.538461538461 723"></path><path d="M793.6384615384616 216.9 L5835.576923076924 723"></path><path d="M800.3076923076923 216.9 L5935.615384615385 723"></path><path d="M806.9769230769231 216.9 L6035.653846153846 723"></path><path d="M813.6461538461539 216.9 L6135.6923076923085 723"></path><path d="M820.3153846153846 216.9 L6235.7307692307695 723"></path><path d="M826.9846153846154 216.9 L6335.7692307692305 723"></path><path d="M833.6538461538462 216.9 L6435.8076923076915 723"></path><path d="M840.3230769230769 216.9 L6535.846153846154 723"></path><path d="M846.9923076923077 216.9 L6635.884615384615 723"></path><path d="M853.6615384615385 216.9 L6735.923076923076 723"></path><path d="M860.3307692307692 216.9 L6835.961538461539 723"></path><path d="M867 216.9 L6936 723"></path><g>
<path d="M0 216.9 L867 216.9"></path>
<animateTransform attributeName="transform" type="translate" repeatCount="indefinite" calcMode="linear" keyTimes="0;1" values="0 0;0 3.8331834319526625" begin="0s" dur="0.8333333333333334s"></animateTransform>

</g><g>
<path d="M0 220.73318343195268 L867 220.73318343195268"></path>
<animateTransform attributeName="transform" type="translate" repeatCount="indefinite" calcMode="linear" keyTimes="0;1" values="0 0;0 7.666366863905326" begin="0s" dur="0.8333333333333334s"></animateTransform>

</g><g>
<path d="M0 228.399550295858 L867 228.399550295858"></path>
<animateTransform attributeName="transform" type="translate" repeatCount="indefinite" calcMode="linear" keyTimes="0;1" values="0 0;0 11.499550295857988" begin="0s" dur="0.8333333333333334s"></animateTransform>

</g><g>
<path d="M0 239.899100591716 L867 239.899100591716"></path>
<animateTransform attributeName="transform" type="translate" repeatCount="indefinite" calcMode="linear" keyTimes="0;1" values="0 0;0 15.332733727810652" begin="0s" dur="0.8333333333333334s"></animateTransform>

</g><g>
<path d="M0 255.23183431952666 L867 255.23183431952666"></path>
<animateTransform attributeName="transform" type="translate" repeatCount="indefinite" calcMode="linear" keyTimes="0;1" values="0 0;0 19.165917159763314" begin="0s" dur="0.8333333333333334s"></animateTransform>

</g><g>
<path d="M0 274.39775147929 L867 274.39775147929"></path>
<animateTransform attributeName="transform" type="translate" repeatCount="indefinite" calcMode="linear" keyTimes="0;1" values="0 0;0 22.999100591715976" begin="0s" dur="0.8333333333333334s"></animateTransform>

</g><g>
<path d="M0 297.396852071006 L867 297.396852071006"></path>
<animateTransform attributeName="transform" type="translate" repeatCount="indefinite" calcMode="linear" keyTimes="0;1" values="0 0;0 26.832284023668638" begin="0s" dur="0.8333333333333334s"></animateTransform>

</g><g>
<path d="M0 324.22913609467463 L867 324.22913609467463"></path>
<animateTransform attributeName="transform" type="translate" repeatCount="indefinite" calcMode="linear" keyTimes="0;1" values="0 0;0 30.665467455621304" begin="0s" dur="0.8333333333333334s"></animateTransform>

</g><g>
<path d="M0 354.8946035502959 L867 354.8946035502959"></path>
<animateTransform attributeName="transform" type="translate" repeatCount="indefinite" calcMode="linear" keyTimes="0;1" values="0 0;0 34.498650887573966" begin="0s" dur="0.8333333333333334s"></animateTransform>

</g><g>
<path d="M0 389.39325443786987 L867 389.39325443786987"></path>
<animateTransform attributeName="transform" type="translate" repeatCount="indefinite" calcMode="linear" keyTimes="0;1" values="0 0;0 38.33183431952663" begin="0s" dur="0.8333333333333334s"></animateTransform>

</g><g>
<path d="M0 427.7250887573965 L867 427.7250887573965"></path>
<animateTransform attributeName="transform" type="translate" repeatCount="indefinite" calcMode="linear" keyTimes="0;1" values="0 0;0 42.16501775147929" begin="0s" dur="0.8333333333333334s"></animateTransform>

</g><g>
<path d="M0 469.8901065088758 L867 469.8901065088758"></path>
<animateTransform attributeName="transform" type="translate" repeatCount="indefinite" calcMode="linear" keyTimes="0;1" values="0 0;0 45.99820118343195" begin="0s" dur="0.8333333333333334s"></animateTransform>

</g><g>
<path d="M0 515.8883076923078 L867 515.8883076923078"></path>
<animateTransform attributeName="transform" type="translate" repeatCount="indefinite" calcMode="linear" keyTimes="0;1" values="0 0;0 49.831384615384614" begin="0s" dur="0.8333333333333334s"></animateTransform>

</g><g>
<path d="M0 565.7196923076924 L867 565.7196923076924"></path>
<animateTransform attributeName="transform" type="translate" repeatCount="indefinite" calcMode="linear" keyTimes="0;1" values="0 0;0 53.664568047337276" begin="0s" dur="0.8333333333333334s"></animateTransform>

</g><g>
<path d="M0 619.3842603550297 L867 619.3842603550297"></path>
<animateTransform attributeName="transform" type="translate" repeatCount="indefinite" calcMode="linear" keyTimes="0;1" values="0 0;0 57.49775147928994" begin="0s" dur="0.8333333333333334s"></animateTransform>

</g><g>
<path d="M0 676.8820118343197 L867 676.8820118343197"></path>
<animateTransform attributeName="transform" type="translate" repeatCount="indefinite" calcMode="linear" keyTimes="0;1" values="0 0;0 61.33093491124261" begin="0s" dur="0.8333333333333334s"></animateTransform>

</g><g>
<path d="M0 738.2129467455622 L867 738.2129467455622"></path>
<animateTransform attributeName="transform" type="translate" repeatCount="indefinite" calcMode="linear" keyTimes="0;1" values="0 0;0 65.16411834319527" begin="0s" dur="0.8333333333333334s"></animateTransform>

</g><rect x="0" y="0" width="867" height="723" fill="url(#fg-lg-0.9820201894045044)"></rect></g>
</svg>