<svg width="120" height="120" viewBox="0 0 120 120" fill="none" xmlns="http://www.w3.org/2000/svg">
    <rect width="120" height="120" fill="#1F2330" />
    <path
        d="M116.502 54.0304L111.557 48.9918V46.0119C111.557 45.5524 111.378 45.1114 111.059 44.7864L106.114 39.7478V36.7679C106.114 36.0668 105.7 35.435 105.064 35.1667C104.43 34.8986 103.697 35.0467 103.211 35.5425L100.067 38.7458C94.0862 38.8835 87.9675 40.7021 82.0424 42.468C76.9241 43.9936 72.0898 45.4343 68.2419 45.4343C62.639 45.4343 57.5449 45.0792 53.0504 44.7662C49.4533 44.5154 46.056 44.2788 43.0692 44.2788C41.3103 44.2788 36.6751 44.9917 31.7221 47.6901C25.7888 50.9222 21.5123 55.8948 19.3557 62.07C18.4858 64.5607 17.1357 66.5183 15.8302 68.4115C14.0456 70.9991 12.2003 73.6747 12.0028 77.347C11.9735 77.8935 12.1991 78.422 12.6115 78.7727C12.9206 79.0352 13.3071 79.175 13.7015 79.175C13.8332 79.175 13.9665 79.1593 14.0973 79.1273C14.1974 79.1031 14.6888 78.9791 15.4549 78.7298L13.8397 88.239C13.7778 88.6035 13.8319 88.9788 13.9944 89.3096L15.8087 93.0072C16.0966 93.5944 16.6856 93.9654 17.3299 93.9654H20.9584C21.8976 93.9654 22.6593 93.1894 22.6593 92.2321C22.6593 91.2749 21.8978 90.4988 20.9584 90.4988H18.3806L17.7344 89.1822C19.8501 86.2336 22.9544 81.9191 23.8438 80.711C30.9705 77.6088 34.5159 74.0902 36.024 72.2183C37.0988 73.1763 38.084 73.9196 38.8137 74.4298L35.707 82.3444C35.4332 83.0416 35.6313 83.8389 36.1973 84.3197L47.0828 93.5637C47.3886 93.8233 47.7737 93.9654 48.1716 93.9654H51.8C52.7393 93.9654 53.5009 93.1894 53.5009 92.2321C53.5009 91.2749 52.7395 90.4988 51.8 90.4988H48.7872L43.5274 86.0324C43.5823 82.1064 45.2927 79.8546 47.2723 77.2582C48.4607 75.6998 49.739 74.0212 50.6128 71.9052C52.4263 72.1698 54.6252 72.3025 56.9077 72.3025C58.6888 72.3025 60.5175 72.22 62.2528 72.0586L59.221 84.4165C59.1871 84.554 59.1701 84.6953 59.1701 84.8368V92.2321C59.1701 93.1892 59.9315 93.9654 60.871 93.9654H64.4994C65.4387 93.9654 66.2004 93.1894 66.2004 92.2321C66.2004 91.2749 65.4389 90.4988 64.4994 90.4988H62.5721V86.8769C62.827 86.4261 63.8104 85.4146 64.6112 84.5912C66.8939 82.2443 69.9621 79.0907 71.3138 75.0966C72.5865 74.6638 74.8473 73.8697 77.5584 72.2908C77.4921 72.4336 77.4243 72.5746 77.3549 72.7105C76.9909 73.4208 77.1525 74.2929 77.7452 74.8193L96.46 91.4396L97.5358 93.1623C97.8481 93.6624 98.3891 93.9652 98.971 93.9652H102.599C103.539 93.9652 104.3 93.1892 104.3 92.2319C104.3 91.2747 103.539 90.4986 102.599 90.4986H99.9045L88.117 71.6229C88.3124 70.9241 88.6154 69.8307 88.9053 68.7356C89.1904 67.6585 89.409 66.786 89.5548 66.1423C89.6268 65.8249 89.6938 65.5256 89.74 65.2424C94.0729 64.2011 100.369 62.1852 105.368 58.5386C106.149 58.9357 107.008 59.3836 107.932 59.877C108.496 60.1781 109.113 60.3269 109.727 60.3269C110.479 60.3269 111.229 60.1039 111.878 59.6632L116.243 56.6977C116.667 56.4097 116.941 55.9431 116.992 55.4264C117.042 54.91 116.862 54.3976 116.502 54.0304ZM22.1169 77.691C21.6595 77.8855 21.6595 77.8855 20.3356 79.711C19.7585 80.5066 19.0097 81.5444 18.2491 82.6004L19.1558 77.2613C23.0034 75.4642 28.14 72.1857 31.242 66.6531C31.9124 67.7193 32.694 68.7623 33.5862 69.774C32.5535 71.1278 29.3682 74.612 22.1169 77.691ZM90.013 81.1162L80.9489 73.0666C81.3954 72.0008 81.8857 70.5397 81.8771 69.2946C82.9956 68.3832 84.1391 67.3379 85.2806 66.1325C85.4984 66.0993 85.7732 66.0545 86.09 66C85.7447 67.4115 85.1694 69.5439 84.6373 71.412C84.5009 71.8904 84.5733 72.4056 84.8358 72.8256L90.013 81.1162ZM109.99 56.7792C109.844 56.8783 109.664 56.8887 109.51 56.8062C107.016 55.4753 103.738 53.7972 102.285 53.3619C101.384 53.0921 100.439 53.6173 100.174 54.5355C99.9086 55.454 100.424 56.4174 101.325 56.6877C101.437 56.7211 101.574 56.7692 101.733 56.8304C94.2421 61.4625 84.3536 62.7662 84.2476 62.7795C83.8518 62.8295 83.4862 63.0195 83.2136 63.3164C77.7708 69.252 72.1884 71.1462 70.0868 71.8593C69.7777 71.9642 69.5337 72.0469 69.3319 72.1259C68.8241 72.3249 68.4402 72.7596 68.2995 73.2954C67.5664 76.0851 65.5501 78.5858 63.6586 80.6207L66.0568 70.8449C66.9471 69.6963 69.6145 65.8593 69.8274 60.8778C69.8682 59.9215 69.1404 59.1125 68.2021 59.0709C67.2645 59.0339 66.4698 59.771 66.429 60.7275C66.2744 64.3519 64.3967 67.3116 63.5895 68.4246C59.7394 68.9308 54.9186 68.968 51.5342 68.5343C51.6323 67.8485 51.6864 67.1227 51.6864 66.3492C51.6864 61.6797 47.8939 56.3117 47.7325 56.0858C47.18 55.3115 46.1165 55.1403 45.3565 55.7036C44.5967 56.2666 44.4287 57.3506 44.9814 58.1248C45.9007 59.4118 48.2852 63.3988 48.2852 66.349C48.2852 70.2808 46.5711 72.5286 44.5866 75.1313C42.9068 77.3344 41.0482 79.7747 40.3794 83.3586L39.3247 82.4629L42.4942 74.388C42.809 73.5859 42.4942 72.6689 41.7588 72.2392C41.6583 72.1807 31.7303 66.275 31.7303 57.105C31.7303 56.1479 30.9688 55.3717 30.0294 55.3717C29.0901 55.3717 28.3285 56.1477 28.3285 57.105C28.3285 58.9986 28.6695 60.8841 29.3256 62.7288C26.6066 69.7245 19.8126 73.3192 16.0021 74.8392C16.596 73.3295 17.5584 71.9339 18.6129 70.4045C19.9824 68.4186 21.5351 66.1676 22.5602 63.2324C27.0069 50.5011 40.0733 47.7452 43.069 47.7452C45.9397 47.7452 49.127 47.9674 52.818 48.2246C57.367 48.5415 62.5229 48.9009 68.2419 48.9009C72.577 48.9009 77.6386 47.3923 82.9975 45.7952C87.7323 44.3841 92.5949 42.9376 97.2745 42.4099C97.2967 42.821 97.4601 43.226 97.7682 43.5403C98.1002 43.8786 98.5356 44.0481 98.9707 44.0481C99.4059 44.0481 99.8413 43.879 100.173 43.5403L101.987 41.6916C101.988 41.6914 101.988 41.6912 101.988 41.6912L102.766 40.8983C102.768 40.9052 102.771 40.9115 102.773 40.9182C102.794 40.9976 102.82 41.0757 102.853 41.1522C102.858 41.1658 102.865 41.179 102.871 41.1923C102.939 41.343 103.03 41.4853 103.143 41.6151C103.155 41.6285 103.166 41.6419 103.179 41.6548C103.19 41.6667 103.199 41.6795 103.211 41.6914L108.155 46.73V49.7099C108.155 50.1695 108.334 50.6104 108.653 50.9354L112.629 54.9867L109.99 56.7792Z"
        fill="#49516D" />
    <path
        d="M112.502 54.0304L107.557 48.9918V46.0119C107.557 45.5524 107.378 45.1114 107.059 44.7864L102.114 39.7478V36.7679C102.114 36.0668 101.7 35.435 101.064 35.1667C100.43 34.8986 99.6974 35.0467 99.2109 35.5425L96.0675 38.7458C90.0862 38.8835 83.9675 40.7021 78.0424 42.468C72.9241 43.9936 68.0898 45.4343 64.2419 45.4343C58.639 45.4343 53.5449 45.0792 49.0504 44.7662C45.4533 44.5154 42.056 44.2788 39.0692 44.2788C37.3103 44.2788 32.6751 44.9917 27.7221 47.6901C21.7888 50.9222 17.5123 55.8948 15.3557 62.07C14.4858 64.5607 13.1357 66.5183 11.8302 68.4115C10.0456 70.9991 8.20034 73.6747 8.00285 77.347C7.97352 77.8935 8.19911 78.422 8.61152 78.7727C8.92057 79.0352 9.30714 79.175 9.70151 79.175C9.83317 79.175 9.96647 79.1593 10.0973 79.1273C10.1974 79.1031 10.6888 78.9791 11.4549 78.7298L9.83973 88.239C9.7778 88.6035 9.83194 88.9788 9.99436 89.3096L11.8087 93.0072C12.0966 93.5944 12.6856 93.9654 13.3299 93.9654H16.9584C17.8976 93.9654 18.6593 93.1894 18.6593 92.2321C18.6593 91.2749 17.8978 90.4988 16.9584 90.4988H14.3806L13.7344 89.1822C15.8501 86.2336 18.9544 81.9191 19.8438 80.711C26.9705 77.6088 30.5159 74.0902 32.024 72.2183C33.0988 73.1763 34.084 73.9196 34.8137 74.4298L31.707 82.3444C31.4332 83.0416 31.6313 83.8389 32.1973 84.3197L43.0828 93.5637C43.3886 93.8233 43.7737 93.9654 44.1716 93.9654H47.8C48.7393 93.9654 49.5009 93.1894 49.5009 92.2321C49.5009 91.2749 48.7395 90.4988 47.8 90.4988H44.7872L39.5274 86.0324C39.5823 82.1064 41.2927 79.8546 43.2723 77.2582C44.4607 75.6998 45.739 74.0212 46.6128 71.9052C48.4263 72.1698 50.6252 72.3025 52.9077 72.3025C54.6888 72.3025 56.5175 72.22 58.2528 72.0586L55.221 84.4165C55.1871 84.554 55.1701 84.6953 55.1701 84.8368V92.2321C55.1701 93.1892 55.9315 93.9654 56.871 93.9654H60.4994C61.4387 93.9654 62.2004 93.1894 62.2004 92.2321C62.2004 91.2749 61.4389 90.4988 60.4994 90.4988H58.5721V86.8769C58.827 86.4261 59.8104 85.4146 60.6112 84.5912C62.8939 82.2443 65.9621 79.0907 67.3138 75.0966C68.5865 74.6638 70.8473 73.8697 73.5584 72.2908C73.4921 72.4336 73.4243 72.5746 73.3549 72.7105C72.9909 73.4208 73.1525 74.2929 73.7452 74.8193L92.46 91.4396L93.5358 93.1623C93.8481 93.6624 94.3891 93.9652 94.971 93.9652H98.5994C99.5386 93.9652 100.3 93.1892 100.3 92.2319C100.3 91.2747 99.5389 90.4986 98.5994 90.4986H95.9045L84.117 71.6229C84.3124 70.9241 84.6154 69.8307 84.9053 68.7356C85.1904 67.6585 85.409 66.786 85.5548 66.1423C85.6268 65.8249 85.6938 65.5256 85.74 65.2424C90.0729 64.2011 96.3692 62.1852 101.368 58.5386C102.149 58.9357 103.008 59.3836 103.932 59.877C104.496 60.1781 105.113 60.3269 105.727 60.3269C106.479 60.3269 107.229 60.1039 107.878 59.6632L112.243 56.6977C112.667 56.4097 112.941 55.9431 112.992 55.4264C113.042 54.91 112.862 54.3976 112.502 54.0304ZM18.1169 77.691C17.6595 77.8855 17.6595 77.8855 16.3356 79.711C15.7585 80.5066 15.0097 81.5444 14.2491 82.6004L15.1558 77.2613C19.0034 75.4642 24.14 72.1857 27.242 66.6531C27.9124 67.7193 28.694 68.7623 29.5862 69.774C28.5535 71.1278 25.3682 74.612 18.1169 77.691ZM86.013 81.1162L76.9489 73.0666C77.3954 72.0008 77.8857 70.5397 77.8771 69.2946C78.9956 68.3832 80.1391 67.3379 81.2806 66.1325C81.4984 66.0993 81.7732 66.0545 82.09 66C81.7447 67.4115 81.1694 69.5439 80.6373 71.412C80.5009 71.8904 80.5733 72.4056 80.8358 72.8256L86.013 81.1162ZM105.99 56.7792C105.844 56.8783 105.664 56.8887 105.51 56.8062C103.016 55.4753 99.7384 53.7972 98.2854 53.3619C97.3841 53.0921 96.4387 53.6173 96.1735 54.5355C95.9086 55.454 96.4241 56.4174 97.3254 56.6877C97.4374 56.7211 97.5738 56.7692 97.7329 56.8304C90.2421 61.4625 80.3536 62.7662 80.2476 62.7795C79.8518 62.8295 79.4862 63.0195 79.2136 63.3164C73.7708 69.252 68.1884 71.1462 66.0868 71.8593C65.7777 71.9642 65.5337 72.0469 65.3319 72.1259C64.8241 72.3249 64.4402 72.7596 64.2995 73.2954C63.5664 76.0851 61.5501 78.5858 59.6586 80.6207L62.0568 70.8449C62.9471 69.6963 65.6145 65.8593 65.8274 60.8778C65.8682 59.9215 65.1404 59.1125 64.2021 59.0709C63.2645 59.0339 62.4698 59.771 62.429 60.7275C62.2744 64.3519 60.3967 67.3116 59.5895 68.4246C55.7394 68.9308 50.9186 68.968 47.5342 68.5343C47.6323 67.8485 47.6864 67.1227 47.6864 66.3492C47.6864 61.6797 43.8939 56.3117 43.7325 56.0858C43.18 55.3115 42.1165 55.1403 41.3565 55.7036C40.5967 56.2666 40.4287 57.3506 40.9814 58.1248C41.9007 59.4118 44.2852 63.3988 44.2852 66.349C44.2852 70.2808 42.5711 72.5286 40.5866 75.1313C38.9068 77.3344 37.0482 79.7747 36.3794 83.3586L35.3247 82.4629L38.4942 74.388C38.809 73.5859 38.4942 72.6689 37.7588 72.2392C37.6583 72.1807 27.7303 66.275 27.7303 57.105C27.7303 56.1479 26.9688 55.3717 26.0294 55.3717C25.0901 55.3717 24.3285 56.1477 24.3285 57.105C24.3285 58.9986 24.6695 60.8841 25.3256 62.7288C22.6066 69.7245 15.8126 73.3192 12.0021 74.8392C12.596 73.3295 13.5584 71.9339 14.6129 70.4045C15.9824 68.4186 17.5351 66.1676 18.5602 63.2324C23.0069 50.5011 36.0733 47.7452 39.069 47.7452C41.9397 47.7452 45.127 47.9674 48.818 48.2246C53.367 48.5415 58.5229 48.9009 64.2419 48.9009C68.577 48.9009 73.6386 47.3923 78.9975 45.7952C83.7323 44.3841 88.5949 42.9376 93.2745 42.4099C93.2967 42.821 93.4601 43.226 93.7682 43.5403C94.1002 43.8786 94.5356 44.0481 94.9707 44.0481C95.4059 44.0481 95.8413 43.879 96.1733 43.5403L97.9874 41.6916C97.9876 41.6914 97.9878 41.6912 97.988 41.6912L98.7661 40.8983C98.768 40.9052 98.771 40.9115 98.7729 40.9182C98.794 40.9976 98.8205 41.0757 98.8527 41.1522C98.8584 41.1658 98.865 41.179 98.8711 41.1923C98.9394 41.343 99.0301 41.4853 99.1433 41.6151C99.1549 41.6285 99.1664 41.6419 99.1785 41.6548C99.1896 41.6667 99.1994 41.6795 99.2109 41.6914L104.155 46.73V49.7099C104.155 50.1695 104.334 50.6104 104.653 50.9354L108.629 54.9867L105.99 56.7792Z"
        fill="#C5B9DF" />
</svg>