<?xml version="1.0" encoding="iso-8859-1"?>
<!-- Generator: Adobe Illustrator 19.0.0, SVG Export Plug-In . SVG Version: 6.00 Build 0)  -->
<svg version="1.1" id="Capa_1" xmlns="http://www.w3.org/2000/svg" xmlns:xlink="http://www.w3.org/1999/xlink" x="0px" y="0px"
	 viewBox="0 0 420.012 420.012" style="enable-background:new 0 0 420.012 420.012;" xml:space="preserve">
<g id="XMLID_40_">
	<path fill="#eee" id="XMLID_85_" d="M0,40v340.012h420.012V40H0z M100.006,165.006v30h-40v-30H100.006z M60.006,135.006v-30h40v30H60.006z
		 M100.006,225.006v30h-40v-30H100.006z M100.006,285.006v30h-40v-30H100.006z M260.83,284.979l-50.824-26.72l-50.824,26.72
		l9.707-56.593l-41.119-40.08l56.824-8.256l25.412-51.491l25.412,51.491l56.824,8.256l-41.119,40.08L260.83,284.979z
		 M360.006,165.006v30h-40v-30H360.006z M320.006,135.006v-30h40v30H320.006z M360.006,225.006v30h-40v-30H360.006z
		 M360.006,285.006v30h-40v-30H360.006z"/>
</g>
<g>
</g>
<g>
</g>
<g>
</g>
<g>
</g>
<g>
</g>
<g>
</g>
<g>
</g>
<g>
</g>
<g>
</g>
<g>
</g>
<g>
</g>
<g>
</g>
<g>
</g>
<g>
</g>
<g>
</g>
</svg>
