<?xml version="1.0" encoding="iso-8859-1"?>
<!-- Generator: Adobe Illustrator 16.0.0, SVG Export Plug-In . SVG Version: 6.00 Build 0)  -->
<!DOCTYPE svg PUBLIC "-//W3C//DTD SVG 1.1//EN" "http://www.w3.org/Graphics/SVG/1.1/DTD/svg11.dtd">
<svg version="1.1" id="Capa_1" xmlns="http://www.w3.org/2000/svg" xmlns:xlink="http://www.w3.org/1999/xlink" x="0px" y="0px"
	 width="398.354px" height="398.354px" viewBox="0 0 398.354 398.354" style="enable-background:new 0 0 398.354 398.354;"
	 xml:space="preserve">
<g>
	<g>
		<path fill="#eee" d="M374.139,75.165h-50.683v-5.447c0-8.525-6.911-15.436-15.438-15.436h-39.51V41.47c0-8.525-6.911-15.438-15.438-15.438
			H145.281c-8.526,0-15.437,6.912-15.437,15.438v12.813h-39.51c-8.526,0-15.437,6.91-15.437,15.436v5.447H24.215
			C10.841,75.166,0,86.008,0,99.381v248.725c0,13.373,10.841,24.215,24.215,24.215h349.924c13.374,0,24.215-10.842,24.215-24.215
			V99.38C398.354,86.007,387.513,75.165,374.139,75.165z M137.591,57.581h123.173v17.584H137.591V57.581z M363.373,133.611
			l-140.146,95.151c-0.774,12.627-11.229,22.636-24.05,22.636c-12.82,0-23.275-10.009-24.05-22.636L34.981,133.611
			c-5.532-3.756-6.972-11.285-3.216-16.818c3.756-5.531,11.285-6.971,16.818-3.215l137.571,93.406
			c3.759-2.418,8.221-3.839,13.022-3.839s9.265,1.421,13.021,3.839l137.572-93.407c5.534-3.756,13.063-2.314,16.818,3.215
			C370.344,122.325,368.904,129.855,363.373,133.611z"/>
	</g>
</g>
<g>
</g>
<g>
</g>
<g>
</g>
<g>
</g>
<g>
</g>
<g>
</g>
<g>
</g>
<g>
</g>
<g>
</g>
<g>
</g>
<g>
</g>
<g>
</g>
<g>
</g>
<g>
</g>
<g>
</g>
</svg>
