<?xml version="1.0" encoding="iso-8859-1"?>
<!-- Generator: Adobe Illustrator 19.0.0, SVG Export Plug-In . SVG Version: 6.00 Build 0)  -->
<svg version="1.1" id="Layer_1" xmlns="http://www.w3.org/2000/svg" xmlns:xlink="http://www.w3.org/1999/xlink" x="0px" y="0px"
	 viewBox="0 0 512 512" style="enable-background:new 0 0 512 512;" xml:space="preserve">
<g>
	<g>
		<path fill="#eee" d="M348.375,154.201c-2.503-4.333-6.541-7.433-11.374-8.728c-1.613-0.432-3.252-0.647-4.879-0.647
			c-3.247,0-6.449,0.852-9.336,2.518c-8.945,5.165-12.021,16.644-6.856,25.589c5.165,8.945,16.641,12.02,25.588,6.856
			C350.463,174.623,353.537,163.146,348.375,154.201z"/>
	</g>
</g>
<g>
	<g>
		<path fill="#eee" d="M180.625,219.762c-17.214,0-31.22,14.005-31.22,31.219c0,17.214,14.005,31.22,31.22,31.22
			c17.214,0,31.219-14.005,31.219-31.22C211.844,233.767,197.839,219.762,180.625,219.762z"/>
	</g>
</g>
<g>
	<g>
		<path fill="#eee" d="M512,405.854V31.219H0v374.634h187.317v37.463H143.61v37.463H368.39v-37.463h-43.707v-37.463H512z M249.308,250.981
			c0,5.801-0.729,11.434-2.09,16.817l18.477,10.667l-18.732,32.443l-18.521-10.693c-8.048,7.82-17.999,13.682-29.085,16.83v21.349
			h-37.463v-21.349c-11.085-3.148-21.036-9.01-29.085-16.829l-18.519,10.693l-18.732-32.443l18.476-10.667
			c-1.361-5.385-2.09-11.017-2.09-16.819c0-5.802,0.729-11.434,2.09-16.819l-18.476-10.667l18.732-32.443l18.519,10.693
			c8.05-7.819,18-13.68,29.085-16.829v-21.349h37.463v21.349c11.087,3.148,21.037,9.01,29.085,16.83l18.521-10.693l18.732,32.443
			l-18.477,10.667C248.578,239.547,249.308,245.181,249.308,250.981z M321.903,218.779L310.91,237.82l-32.443-18.732l10.984-19.025
			c-2.199-2.575-4.212-5.364-5.964-8.401c-1.752-3.037-3.173-6.173-4.303-9.366h-21.96v-37.463h21.987
			c2.273-6.44,5.712-12.483,10.23-17.779l-10.977-19.013l32.443-18.732l10.961,18.984c6.737-1.259,13.68-1.253,20.542,0.034
			L353.39,89.31l32.443,18.732l-10.971,19.004c2.21,2.597,4.21,5.405,5.953,8.422c1.742,3.017,3.173,6.153,4.316,9.366h21.944
			v37.463h-21.959c-2.318,6.586-5.786,12.601-10.244,17.808l10.964,18.984l-32.443,18.732l-10.979-19.016
			c-3.377,0.624-6.78,0.945-10.169,0.945C328.766,219.749,325.304,219.413,321.903,218.779z"/>
	</g>
</g>
<g>
</g>
<g>
</g>
<g>
</g>
<g>
</g>
<g>
</g>
<g>
</g>
<g>
</g>
<g>
</g>
<g>
</g>
<g>
</g>
<g>
</g>
<g>
</g>
<g>
</g>
<g>
</g>
<g>
</g>
</svg>
