<?xml version="1.0" encoding="iso-8859-1"?>
<!-- Generator: Adobe Illustrator 19.0.0, SVG Export Plug-In . SVG Version: 6.00 Build 0)  -->
<svg version="1.1" id="Layer_1" xmlns="http://www.w3.org/2000/svg" xmlns:xlink="http://www.w3.org/1999/xlink" x="0px" y="0px"
	 viewBox="0 0 512 512" style="enable-background:new 0 0 512 512;" xml:space="preserve">
<g>
	<g>
		<g>
			<path fill="#eee" d="M246.685,357.111h67.326c-1.02-1.766-33.637-58.243-33.668-58.299C272.646,312.143,254.448,343.665,246.685,357.111z"/>
			<path fill="#eee" d="M291.257,245.788c-2.6-25.908-24.532-46.204-51.113-46.204c-28.325,0-51.37,23.045-51.37,51.37
				c0,25.572,18.492,45.788,41.006,50.405C249.058,267.971,260.527,233.675,291.257,245.788z"/>
			<path fill="#eee" d="M433.181,0h-46.097c-3.913,0-7.086,3.173-7.086,7.086v143.198c0,6.215-7.433,9.42-11.951,5.151l-20.195-19.074
				c-2.731-2.579-6.999-2.579-9.73,0l-20.195,19.074c-4.519,4.267-11.951,1.064-11.951-5.151V7.086c0-3.913-3.173-7.086-7.086-7.086
				H78.819C67.079,0,57.562,9.517,57.562,21.257v469.486c0,11.739,9.517,21.257,21.257,21.257h354.363
				c11.739,0,21.257-9.517,21.257-21.257V21.257C454.438,9.517,444.921,0,433.181,0z M335.786,399.625H224.911
				c-22.994,0-37.445-24.964-25.936-44.906l8.97-15.539c-35.521-13.059-61.684-47.045-61.684-88.227
				c0-51.767,42.117-93.884,93.884-93.884c68.808,0,114.316,72.028,84.861,134.071l36.712,63.573
				C373.234,374.758,358.709,399.625,335.786,399.625z"/>
		</g>
	</g>
</g>
<g>
</g>
<g>
</g>
<g>
</g>
<g>
</g>
<g>
</g>
<g>
</g>
<g>
</g>
<g>
</g>
<g>
</g>
<g>
</g>
<g>
</g>
<g>
</g>
<g>
</g>
<g>
</g>
<g>
</g>
</svg>
